<svg xmlns="http://www.w3.org/2000/svg" width="25.136" height="28.427" viewBox="0 0 25.136 28.427">
  <g id="google-play" transform="translate(-29.601 0)">
    <path id="Path_1731" data-name="Path 1731" d="M266.011,170.118l-4.814-2.78-6.6,4.928,6.6,4.928,4.831-2.79a2.5,2.5,0,0,0-.016-4.286Z" transform="translate(-212.493 -158.036)" fill="#ff9100"/>
    <path id="Path_1732" data-name="Path 1732" d="M43.776,26.279l-5.837,7.5-7.588,5.976a2.534,2.534,0,0,1-.75-1.8v-23.4a2.533,2.533,0,0,1,.75-1.8l7.588,6.017Z" transform="translate(0 -12.048)" fill="#25d9f8"/>
    <path id="Path_1733" data-name="Path 1733" d="M256.269,219.45,254.6,221.6v-4.3Z" transform="translate(-212.493 -205.219)" fill="#00c0f1"/>
    <path id="Path_1734" data-name="Path 1734" d="M61.462,9.295l-4.936,4.936L43.1.71a3.76,3.76,0,0,1,.517-.384,2.469,2.469,0,0,1,2.535.05l8.7,5.116Z" transform="translate(-12.75 0)" fill="#7fe881"/>
    <path id="Path_1735" data-name="Path 1735" d="M261.2,102.6l-4.936,4.936-1.668-1.668V98.8Z" transform="translate(-212.493 -93.308)" fill="#5bc980"/>
    <path id="Path_1736" data-name="Path 1736" d="M61.462,260.936l-6.6,3.8-8.722,5.092a2.541,2.541,0,0,1-1.284.367,2.588,2.588,0,0,1-1.234-.334,3.764,3.764,0,0,1-.517-.383L56.525,256Z" transform="translate(-12.75 -241.769)" fill="#ff637b"/>
    <path id="Path_1737" data-name="Path 1737" d="M261.2,260.936l-6.6,3.8v-7.071L256.269,256Z" transform="translate(-212.493 -241.769)" fill="#e63950"/>
  </g>
</svg>
