<svg id="apple" xmlns="http://www.w3.org/2000/svg" width="170.046" height="49.154" viewBox="0 0 170.046 49.154">
  <path id="Path_56" data-name="Path 56" d="M165.042,49.958H6.621A5.811,5.811,0,0,1,.809,44.146V6.617A5.811,5.811,0,0,1,6.621.8H165.042a5.812,5.812,0,0,1,5.812,5.812v37.53a5.812,5.812,0,0,1-5.812,5.812" transform="translate(-0.809 -0.805)" fill="#fff"/>
  <g id="Group_22" data-name="Group 22" transform="translate(54.123 7.313)">
    <path id="Path_59" data-name="Path 59" d="M74.205,15.466l-.652-2.042c-.16-.5-.3-1.067-.418-1.547H73.11c-.12.48-.246,1.055-.391,1.547l-.64,2.042Zm-2.371,1.141-.713,2.349H69.559l2.657-8.285h1.928l2.691,8.285H75.214l-.75-2.349" transform="translate(-69.559 -10.217)" fill="#1a1a1a"/>
    <path id="Path_60" data-name="Path 60" d="M81.23,13.594l.972,3.032c.172.529.292,1.009.4,1.5h.037c.111-.492.246-.959.406-1.5l.959-3.032H85.59l-2.285,5.984H81.82l-2.226-5.984" transform="translate(-71.694 -10.838)" fill="#1a1a1a"/>
    <path id="Path_61" data-name="Path 61" d="M92.034,16.614c-1.07-.012-2.091.209-2.091,1.119a.794.794,0,0,0,.861.861,1.238,1.238,0,0,0,1.19-.824.947.947,0,0,0,.04-.332ZM93.507,18.1a8.024,8.024,0,0,0,.1,1.436H92.24l-.108-.661h-.04a2.186,2.186,0,0,1-1.768.8,1.773,1.773,0,0,1-1.879-1.781c0-1.5,1.338-2.273,3.549-2.26v-.1c0-.394-.157-1.046-1.215-1.046a3.173,3.173,0,0,0-1.611.443l-.3-.984a4.317,4.317,0,0,1,2.165-.526,2.241,2.241,0,0,1,2.469,2.531" transform="translate(-73.577 -10.802)" fill="#1a1a1a"/>
    <path id="Path_62" data-name="Path 62" d="M97.567,12.919h1.51V18.9h-1.51Zm.747-.861a.854.854,0,1,1,.015,0" transform="translate(-75.499 -10.164)" fill="#1a1a1a"/>
    <path id="Path_63" data-name="Path 63" d="M102.27,18.833h1.512v-8.74H102.27Zm0,0" transform="translate(-76.518 -10.094)" fill="#1a1a1a"/>
    <path id="Path_64" data-name="Path 64" d="M110.026,16.614c-1.07-.012-2.091.209-2.091,1.119a.794.794,0,0,0,.861.861,1.241,1.241,0,0,0,1.193-.824,1.019,1.019,0,0,0,.037-.332ZM111.5,18.1a8,8,0,0,0,.1,1.436h-1.362l-.111-.661h-.037a2.2,2.2,0,0,1-1.771.8,1.775,1.775,0,0,1-1.878-1.781c0-1.5,1.341-2.273,3.551-2.26v-.1c0-.394-.16-1.046-1.218-1.046a3.153,3.153,0,0,0-1.608.443l-.3-.984a4.3,4.3,0,0,1,2.162-.526,2.241,2.241,0,0,1,2.47,2.531" transform="translate(-77.405 -10.802)" fill="#1a1a1a"/>
    <path id="Path_65" data-name="Path 65" d="M117.082,16.361a1.682,1.682,0,0,0,.037.357,1.381,1.381,0,0,0,1.338,1.058c.947,0,1.526-.75,1.526-1.965,0-1.058-.5-1.919-1.513-1.919A1.4,1.4,0,0,0,117.131,15a1.822,1.822,0,0,0-.049.394Zm-1.513-6.267h1.513V13.67h.024a2.16,2.16,0,0,1,1.916-.956c1.463,0,2.506,1.215,2.494,3.035,0,2.15-1.363,3.22-2.715,3.22a2.057,2.057,0,0,1-1.892-1.033h-.024l-.074.9H115.52c.024-.406.049-1.07.049-1.673" transform="translate(-79.337 -10.094)" fill="#1a1a1a"/>
    <path id="Path_66" data-name="Path 66" d="M125.4,18.833h1.51v-8.74H125.4Zm0,0" transform="translate(-81.439 -10.094)" fill="#1a1a1a"/>
    <path id="Path_67" data-name="Path 67" d="M133.69,15.916a1.287,1.287,0,0,0-1.239-1.464,1.48,1.48,0,0,0-1.39,1.464Zm-2.629,1.055a1.628,1.628,0,0,0,1.845,1.55,4.815,4.815,0,0,0,1.657-.271l.222,1.03a5.324,5.324,0,0,1-2.089.381,2.831,2.831,0,0,1-3.088-3.02,2.964,2.964,0,0,1,2.928-3.22c1.941,0,2.58,1.6,2.58,2.912a3.681,3.681,0,0,1-.049.637" transform="translate(-82.335 -10.802)" fill="#1a1a1a"/>
    <path id="Path_68" data-name="Path 68" d="M145.317,18.582c.857,0,1.46-.836,1.46-2.051,0-.935-.418-2.017-1.449-2.017-1.07,0-1.5,1.046-1.5,2.042,0,1.153.578,2.027,1.473,2.027Zm-.05,1.095a2.893,2.893,0,0,1-3-3.084,2.952,2.952,0,0,1,3.1-3.17,2.871,2.871,0,0,1,2.973,3.072,2.963,2.963,0,0,1-3.059,3.183" transform="translate(-85.028 -10.802)" fill="#1a1a1a"/>
    <path id="Path_69" data-name="Path 69" d="M152.226,15.338c0-.689-.021-1.267-.046-1.784h1.313l.073.9h.037a2.2,2.2,0,0,1,1.919-1.03c1.042,0,2.125.673,2.125,2.568v3.549h-1.513V16.162c0-.861-.32-1.513-1.141-1.513a1.269,1.269,0,0,0-1.181.886,1.394,1.394,0,0,0-.074.48v3.524h-1.513" transform="translate(-87.137 -10.802)" fill="#1a1a1a"/>
    <path id="Path_70" data-name="Path 70" d="M167.341,11.641v1.535h1.436v1.132h-1.436v2.629c0,.738.2,1.107.771,1.107a1.971,1.971,0,0,0,.59-.061l.024,1.141a3.234,3.234,0,0,1-1.094.16,1.742,1.742,0,0,1-1.3-.489,2.364,2.364,0,0,1-.479-1.685v-2.8H165V13.175h.849V12.059" transform="translate(-89.865 -10.423)" fill="#1a1a1a"/>
    <path id="Path_71" data-name="Path 71" d="M171.934,10.094h1.512v3.564h.025a1.986,1.986,0,0,1,.75-.677,2.152,2.152,0,0,1,1.042-.268c1.021,0,2.088.673,2.088,2.592v3.527h-1.51V15.466c0-.861-.32-1.525-1.156-1.525a1.261,1.261,0,0,0-1.178.849,1.349,1.349,0,0,0-.062.455v3.589h-1.512" transform="translate(-91.339 -10.094)" fill="#1a1a1a"/>
    <path id="Path_72" data-name="Path 72" d="M185.143,15.916a1.288,1.288,0,0,0-1.242-1.464,1.477,1.477,0,0,0-1.387,1.464Zm-2.629,1.055a1.625,1.625,0,0,0,1.842,1.55,4.8,4.8,0,0,0,1.658-.271l.224,1.03a5.329,5.329,0,0,1-2.092.381,2.83,2.83,0,0,1-3.084-3.02,2.963,2.963,0,0,1,2.924-3.22c1.941,0,2.581,1.6,2.581,2.912a3.663,3.663,0,0,1-.05.637" transform="translate(-93.281 -10.802)" fill="#1a1a1a"/>
  </g>
  <g id="Group_25" data-name="Group 25" transform="translate(15.547 6.827)">
    <path id="Path_73" data-name="Path 73" d="M42.607,28.85a7.363,7.363,0,0,1,3.512-6.187,7.549,7.549,0,0,0-5.95-3.217c-2.5-.261-4.927,1.5-6.2,1.5-1.3,0-3.266-1.473-5.379-1.43a7.925,7.925,0,0,0-6.667,4.065c-2.878,4.991-.732,12.322,2.03,16.357,1.384,1.974,3,4.182,5.108,4.1,2.067-.086,2.838-1.316,5.332-1.316,2.472,0,3.2,1.316,5.354,1.267,2.217-.037,3.613-1.983,4.945-3.979a16.215,16.215,0,0,0,2.263-4.607,7.13,7.13,0,0,1-4.348-6.556" transform="translate(-20.557 -11.592)" fill="#1a1a1a"/>
    <path id="Path_74" data-name="Path 74" d="M42.081,14.68a7.251,7.251,0,0,0,1.661-5.2,7.407,7.407,0,0,0-4.779,2.472,6.9,6.9,0,0,0-1.7,5.009,6.1,6.1,0,0,0,4.822-2.279" transform="translate(-24.102 -9.477)" fill="#1a1a1a"/>
  </g>
  <g id="Group_21" data-name="Group 21" transform="translate(53.222 21.821)">
    <path id="Path_75" data-name="Path 75" d="M77.729,38.681,76.3,34.275q-.226-.673-.852-3.177H75.4c-.166.717-.437,1.777-.8,3.177l-1.4,4.407Zm4.933,7.039H79.78L78.2,40.763h-5.48l-1.5,4.957h-2.8l5.437-16.877H77.2" transform="translate(-68.414 -28.592)" fill="#1a1a1a"/>
    <path id="Path_76" data-name="Path 76" d="M98.339,40.79a5.01,5.01,0,0,0-.8-2.931,2.771,2.771,0,0,0-2.353-1.2,2.806,2.806,0,0,0-1.814.664A3.112,3.112,0,0,0,92.3,39.064a3.51,3.51,0,0,0-.123.821v2.03a3.253,3.253,0,0,0,.812,2.242,2.7,2.7,0,0,0,2.116.913,2.751,2.751,0,0,0,2.377-1.178,5.146,5.146,0,0,0,.855-3.1m2.755-.1A6.913,6.913,0,0,1,99.416,45.6a4.906,4.906,0,0,1-3.73,1.6,3.733,3.733,0,0,1-3.456-1.728H92.18v6.412H89.473V38.76q0-1.951-.1-4.007h2.377l.151,1.931h.052a4.807,4.807,0,0,1,7.7-.477,6.717,6.717,0,0,1,1.442,4.481" transform="translate(-72.874 -29.796)" fill="#1a1a1a"/>
    <path id="Path_77" data-name="Path 77" d="M116.117,40.79a5.014,5.014,0,0,0-.8-2.931,2.772,2.772,0,0,0-2.353-1.2,2.811,2.811,0,0,0-1.814.664,3.069,3.069,0,0,0-1.061,1.744,3.394,3.394,0,0,0-.126.821v2.03a3.252,3.252,0,0,0,.809,2.242,2.7,2.7,0,0,0,2.119.913,2.759,2.759,0,0,0,2.377-1.178,5.184,5.184,0,0,0,.852-3.1m2.752-.1a6.912,6.912,0,0,1-1.676,4.908,4.9,4.9,0,0,1-3.73,1.6,3.74,3.74,0,0,1-3.457-1.728h-.046v6.412h-2.707V38.76q0-1.951-.1-4.007h2.377l.15,1.931h.053a4.806,4.806,0,0,1,7.7-.477,6.71,6.71,0,0,1,1.436,4.481" transform="translate(-76.657 -29.796)" fill="#1a1a1a"/>
    <path id="Path_78" data-name="Path 78" d="M139.087,40.919a4.5,4.5,0,0,1-1.5,3.506,6.649,6.649,0,0,1-4.594,1.476,8.071,8.071,0,0,1-4.379-1.052l.627-2.251a7.434,7.434,0,0,0,3.912,1.073,3.7,3.7,0,0,0,2.38-.686,2.259,2.259,0,0,0,.849-1.845,2.355,2.355,0,0,0-.7-1.731,6.575,6.575,0,0,0-2.331-1.3q-4.433-1.656-4.431-4.84a4.282,4.282,0,0,1,1.553-3.41,6.13,6.13,0,0,1,4.13-1.332,8.215,8.215,0,0,1,3.832.8l-.677,2.2a6.65,6.65,0,0,0-3.229-.778,3.259,3.259,0,0,0-2.226.7,2.013,2.013,0,0,0-.677,1.528,2.054,2.054,0,0,0,.775,1.651,8.808,8.808,0,0,0,2.454,1.3,8.317,8.317,0,0,1,3.2,2.051,4.308,4.308,0,0,1,1.027,2.931" transform="translate(-81.222 -28.523)" fill="#1a1a1a"/>
    <path id="Path_79" data-name="Path 79" d="M151.267,36.031h-2.981v5.907q0,2.256,1.581,2.254a4.864,4.864,0,0,0,1.2-.123l.073,2.051a6,6,0,0,1-2.1.3,3.253,3.253,0,0,1-2.506-.975,4.8,4.8,0,0,1-.9-3.281V36.031h-1.778V34h1.778V31.775l2.654-.8V34h2.981" transform="translate(-84.464 -29.044)" fill="#1a1a1a"/>
    <path id="Path_80" data-name="Path 80" d="M164.327,40.827a5.482,5.482,0,0,0-.729-2.888,2.664,2.664,0,0,0-2.426-1.458,2.709,2.709,0,0,0-2.478,1.458,5.589,5.589,0,0,0-.723,2.94,5.461,5.461,0,0,0,.723,2.884,2.729,2.729,0,0,0,2.457,1.458,2.7,2.7,0,0,0,2.426-1.482,5.464,5.464,0,0,0,.75-2.912m2.8-.086a6.664,6.664,0,0,1-1.6,4.607,5.716,5.716,0,0,1-4.456,1.851,5.449,5.449,0,0,1-4.272-1.777,6.478,6.478,0,0,1-1.586-4.481,6.6,6.6,0,0,1,1.639-4.631A5.662,5.662,0,0,1,161.27,34.5a5.563,5.563,0,0,1,4.309,1.777,6.422,6.422,0,0,1,1.553,4.459" transform="translate(-86.881 -29.796)" fill="#1a1a1a"/>
    <path id="Path_81" data-name="Path 81" d="M179.757,37.133a4.7,4.7,0,0,0-.852-.074,2.561,2.561,0,0,0-2.205,1.076,4.066,4.066,0,0,0-.674,2.4v6.387h-2.7l.021-8.337q0-2.108-.1-3.835H175.6l.1,2.331h.071a4.181,4.181,0,0,1,1.353-1.928,3.285,3.285,0,0,1,1.956-.652,4.474,4.474,0,0,1,.677.049" transform="translate(-90.717 -29.796)" fill="#1a1a1a"/>
    <path id="Path_82" data-name="Path 82" d="M191.372,39.556a3.684,3.684,0,0,0-.523-2.079,2.37,2.37,0,0,0-2.156-1.129,2.572,2.572,0,0,0-2.152,1.1,4,4,0,0,0-.8,2.1Zm2.577.7a6.6,6.6,0,0,1-.1,1.227h-8.109a3.513,3.513,0,0,0,1.175,2.755,4.01,4.01,0,0,0,2.655.849,8.972,8.972,0,0,0,3.28-.575l.425,1.879a10.236,10.236,0,0,1-4.084.753,5.893,5.893,0,0,1-4.443-1.67,6.15,6.15,0,0,1-1.615-4.468,6.957,6.957,0,0,1,1.5-4.582,5.172,5.172,0,0,1,4.253-1.953,4.534,4.534,0,0,1,3.986,1.953,6.566,6.566,0,0,1,1.07,3.832" transform="translate(-92.822 -29.789)" fill="#1a1a1a"/>
  </g>
</svg>
