<svg xmlns="http://www.w3.org/2000/svg" width="30.848" height="23.142" viewBox="0 0 30.848 23.142">
  <g id="Group_791" data-name="Group 791" transform="translate(-916.182 -508.555)">
    <path id="Path_1675" data-name="Path 1675" d="M918.285,542.749h4.908V530.83l-7.011-5.258v15.073a2.1,2.1,0,0,0,2.1,2.1" transform="translate(0 -11.052)" fill="#4285f4"/>
    <path id="Path_1676" data-name="Path 1676" d="M984.182,542.749h4.908a2.1,2.1,0,0,0,2.1-2.1V525.572l-7.011,5.258" transform="translate(-44.163 -11.052)" fill="#34a853"/>
    <path id="Path_1677" data-name="Path 1677" d="M984.182,510.664v9.114l7.011-5.258v-2.8a3.155,3.155,0,0,0-5.048-2.524" transform="translate(-44.163 0)" fill="#fbbc04"/>
    <path id="Path_1678" data-name="Path 1678" d="M936.182,523.686v-9.114l8.413,6.31,8.413-6.31v9.114L944.595,530" transform="translate(-12.989 -3.908)" fill="#ea4335"/>
    <path id="Path_1679" data-name="Path 1679" d="M916.182,511.716v2.8l7.011,5.258v-9.114l-1.963-1.472a3.154,3.154,0,0,0-5.048,2.524" transform="translate(0 0)" fill="#c5221f"/>
  </g>
</svg>
